# xmcd
#
# Track frame offsets:
# 150
# 13549
# 27018
# 40746
# 54157
# 61866
# 75187
# 88702
# 102078
# 115612
# 129211
# 141937
# 152233
# 165775
# 177601
#
# Disc length: 2461 seconds
#
#
# Revision: 0
# Processed by: cddbd v1.5.2PL0 Copyright (c) Steve Scherf et al.
# Submitted via: FreeRIP 2.945 
#
DISCID=a3099b0f
DTITLE=Murphy-P2001 - Wild-Angel8
DYEAR=2001
DGENRE=Jungle
TTITLE0=WA 801
TTITLE1=WA 802
TTITLE2=WA 803
TTITLE3=WA 804
TTITLE4=WA 805
TTITLE5=WA 806
TTITLE6=WA 807
TTITLE7=WA 808
TTITLE8=WA 809
TTITLE9=WA 810
TTITLE10=WA 811
TTITLE11=WA 812
TTITLE12=WA 813
TTITLE13=WA 814
TTITLE14=WA 815
EXTD=Wild Angel by Pat (Patrice) Murphy 9 CDs\nread by Bernadette Dunne Blackstone Audio\njungle country
EXTT0=
EXTT1=
EXTT2=
EXTT3=
EXTT4=
EXTT5=
EXTT6=
EXTT7=
EXTT8=
EXTT9=
EXTT10=
EXTT11=
EXTT12=
EXTT13=
EXTT14=
PLAYORDER=
